# xmcd
#
# Track frame offsets: 
#        150
#        32315
#        55720
#        82599
#        109049
#        133202
#        159729
#        187756
#        211368
#        235986
#        261675
#        287068
#        313651
#
# Disc length: 4563 seconds
#
# Revision: 0
# Processed by: cddbd v1.5.2PL0 Copyright (c) Steve Scherf et al.
# Submitted via: ExactAudioCopy v1.0b3
#
DISCID=af11d10d
DTITLE=Various Artist - D.Techno Vol. 27 - CD 1
DYEAR=1900
DGENRE=
TTITLE0=D-Block and S-Te-Fan, Villain And DV8 - A Decade Of Dedication
TTITLE1=Showtek - We Live For The Music (Noisecontrollers Remix)
TTITLE2=Gary D. and MCMS - No Return (Original Mix)
TTITLE3=Brennan Heart - Just As Easy (Wildstylez and SMD Remix)
TTITLE4=Deepack - Phoenix
TTITLE5=D'Stylerz - Existence
TTITLE6=Artic - Parallel Universe
TTITLE7=Frontliner - Save Exit Planet (In Qontrol Anthem 2010)
TTITLE8=Max Enforcer - Gold
TTITLE9=Francesco Zeta - Moonlight Blue (Activator Remix)
TTITLE10=Slim Shore - Scars
TTITLE11=Pradera - Spirit
TTITLE12=Intractable One - Dikke Bleek (Jack Of Sound WC Remix)
EXTD=
EXTT0=
EXTT1=
EXTT2=
EXTT3=
EXTT4=
EXTT5=
EXTT6=
EXTT7=
EXTT8=
EXTT9=
EXTT10=
EXTT11=
EXTT12=
PLAYORDER=
